<?xml version="1.0" standalone="no"?>
<!DOCTYPE svg PUBLIC "-//W3C//DTD SVG 20010904//EN"
 "http://www.w3.org/TR/2001/REC-SVG-20010904/DTD/svg10.dtd">
<svg version="1.0" xmlns="http://www.w3.org/2000/svg"
 width="500.000000pt" height="500.000000pt" viewBox="0 0 500.000000 500.000000"
 preserveAspectRatio="xMidYMid meet">

<g transform="translate(0.000000,500.000000) scale(0.100000,-0.100000)"
fill="#000000" stroke="none">
<path d="M2700 3485 l0 -25 -345 0 -345 0 0 -30 c0 -27 -3 -30 -30 -30 -27 0
-30 -3 -30 -30 0 -27 -3 -30 -30 -30 l-30 0 0 -60 0 -60 30 0 c27 0 30 -3 30
-30 0 -27 3 -30 30 -30 27 0 30 -3 30 -31 l0 -30 550 3 550 3 0 -27 c0 -27 1
-28 60 -28 l60 0 0 -30 c0 -27 3 -30 31 -30 l32 0 -7 -46 c-3 -26 -6 -64 -6
-85 0 -35 -3 -39 -25 -39 -21 0 -25 -5 -25 -30 l0 -30 -60 0 -60 0 0 -30 0
-30 -260 0 -260 0 0 -25 c0 -21 -5 -25 -30 -25 -27 0 -30 -3 -30 -30 0 -27 -3
-30 -30 -30 -27 0 -30 -3 -30 -30 l0 -30 -320 0 -320 0 0 -30 c0 -30 -1 -30
-54 -30 -52 0 -55 -1 -58 -27 -2 -22 -9 -29 -30 -31 -22 -3 -28 -9 -28 -28 0
-20 -5 -24 -30 -24 -27 0 -30 -3 -30 -30 0 -27 -3 -30 -30 -30 l-30 0 0 -60 0
-60 -30 0 -30 0 0 -175 0 -175 30 0 c28 0 29 -1 32 -57 3 -55 4 -58 31 -61 23
-3 27 -8 27 -33 0 -26 3 -29 30 -29 25 0 30 -4 30 -25 0 -24 3 -25 55 -25 55
0 55 0 55 -30 l0 -30 208 2 207 3 3 28 c3 26 6 27 58 27 53 0 54 0 54 30 0 27
3 30 30 30 27 0 30 3 30 30 0 27 3 30 30 30 30 0 30 1 30 54 0 52 1 55 28 58
21 2 28 9 30 31 3 26 6 27 58 27 53 0 54 0 54 -30 0 -25 4 -30 25 -30 22 0 24
-4 27 -57 3 -55 5 -58 30 -61 21 -3 27 -9 30 -30 2 -21 9 -28 31 -30 21 -3 27
-9 27 -28 0 -23 3 -24 60 -24 l60 0 0 -30 0 -30 205 0 205 0 0 30 c0 30 1 30
54 30 52 0 55 1 58 28 2 21 9 28 31 30 23 3 27 8 27 33 0 26 3 29 30 29 30 0
30 1 30 55 0 54 0 55 30 55 l30 0 0 175 0 175 -30 0 -30 0 0 60 0 60 -30 0
c-27 0 -30 3 -30 30 0 27 -3 30 -30 30 -25 0 -30 4 -30 25 0 20 -5 25 -25 25
-21 0 -25 5 -25 30 l0 30 -60 0 -60 0 0 30 0 30 -351 0 -350 0 3 28 c2 21 9
28 31 30 21 3 27 9 27 27 l0 25 263 2 262 3 3 28 c3 26 6 27 58 27 53 0 54 0
54 30 0 27 3 30 30 30 27 0 30 3 30 30 0 27 3 30 30 30 l30 0 0 85 0 85 -30 0
c-27 0 -30 3 -30 30 0 27 -3 30 -30 30 -27 0 -30 3 -30 30 l0 30 -60 0 -60 0
0 30 0 30 -550 0 -550 0 0 30 c0 27 -3 30 -30 30 -30 0 -30 1 -30 55 0 54 0
55 30 55 25 0 30 4 30 25 l0 25 304 0 c167 0 324 3 350 6 40 6 46 10 46 30 0
19 5 24 25 24 21 0 25 5 25 30 0 27 -3 30 -30 30 -25 0 -30 -4 -30 -25z m-342
-1042 l-3 -28 -257 -3 -258 -2 0 30 0 30 261 0 260 0 -3 -27z m292 -28 l0 -55
-115 0 -115 0 0 55 0 55 115 0 115 0 0 -55z m580 25 c0 -30 1 -30 55 -30 54 0
55 0 55 -30 0 -27 3 -30 30 -30 25 0 30 -4 30 -25 0 -21 5 -25 30 -25 l30 0 0
-60 0 -60 30 0 30 0 -2 -172 -3 -173 -27 -3 c-27 -3 -28 -6 -28 -58 0 -53 0
-54 -30 -54 -27 0 -30 -3 -30 -30 l0 -30 -60 0 -60 0 0 30 0 30 60 0 60 0 0
60 0 60 30 0 30 0 0 170 0 170 -30 0 c-30 0 -30 1 -30 55 0 54 0 55 -30 55
-27 0 -30 3 -30 30 l0 30 -60 0 -60 0 0 30 0 30 -255 0 -255 0 0 30 0 30 260
0 260 0 0 -30z m-60 -260 l0 -60 -55 0 -55 0 0 60 0 60 55 0 55 0 0 -60z
m-1160 -115 l0 -54 58 -3 c54 -3 57 -4 60 -30 3 -28 3 -28 -57 -28 l-60 0 -3
-57 c-3 -55 -4 -58 -30 -61 -28 -3 -28 -3 -28 57 l0 61 -55 0 c-54 0 -55 0
-55 30 0 30 1 30 55 30 l55 0 0 55 c0 54 0 55 30 55 30 0 30 -1 30 -55z m988
-57 l3 -58 -61 0 -60 0 0 54 c0 54 0 55 33 59 78 10 82 8 85 -55z m350 0 l3
-58 -61 0 -60 0 0 54 c0 54 0 55 33 59 78 10 82 8 85 -55z m-698 -28 l0 -30
-120 0 -120 0 0 -60 c0 -57 -1 -60 -25 -60 -24 0 -25 -3 -25 -55 0 -54 0 -55
-30 -55 -27 0 -30 -3 -30 -30 l0 -30 -60 0 -60 0 0 30 0 30 60 0 60 0 0 60 c0
57 1 60 25 60 24 0 25 3 25 55 0 54 0 55 30 55 27 0 30 3 30 30 l0 30 120 0
120 0 0 -30z m520 -150 c0 -66 1 -66 -72 -54 l-38 7 0 53 0 54 55 0 55 0 0
-60z"/>
</g>
</svg>
