<?xml version="1.0" standalone="no"?>
<!DOCTYPE svg PUBLIC "-//W3C//DTD SVG 20010904//EN"
 "http://www.w3.org/TR/2001/REC-SVG-20010904/DTD/svg10.dtd">
<svg version="1.0" xmlns="http://www.w3.org/2000/svg"
 width="500.000000pt" height="500.000000pt" viewBox="0 0 500.000000 500.000000"
 preserveAspectRatio="xMidYMid meet">

<g transform="translate(0.000000,500.000000) scale(0.100000,-0.100000)"
fill="#000000" stroke="none">
<path d="M2020 3555 l0 -45 -50 0 -50 0 0 -50 0 -50 -45 0 -45 0 0 -45 0 -45
-50 0 -50 0 0 -144 0 -145 48 -3 47 -3 3 -92 3 -93 -51 0 -50 0 0 -100 0 -100
50 0 50 0 0 -45 0 -45 95 0 95 0 0 -50 0 -50 45 0 45 0 0 -95 0 -95 100 0 100
0 0 45 0 45 -50 0 -50 0 0 100 0 100 95 0 95 0 0 -50 0 -50 95 0 95 0 0 28 c0
15 3 57 7 95 l6 67 -102 0 -101 0 0 195 0 195 -45 0 -45 0 0 45 0 45 -100 0
-100 0 0 -95 0 -95 -45 0 -45 0 0 -145 0 -145 -50 0 -50 0 0 195 0 195 -45 0
-45 0 0 140 0 140 45 0 45 0 0 50 0 50 50 0 50 0 0 50 0 50 95 0 95 0 0 45 0
45 -95 0 -95 0 0 -45z"/>
<path d="M3080 3220 l0 -90 45 0 45 0 0 90 0 90 -45 0 -45 0 0 -90z"/>
<path d="M2690 3075 l0 -45 -51 0 -51 0 7 -187 c4 -104 9 -190 11 -192 2 -2
87 -6 189 -9 l185 -5 0 147 0 146 -50 0 -50 0 0 95 0 95 -95 0 -95 0 0 -45z"/>
<path d="M3170 2690 l0 -50 45 0 45 0 0 50 0 50 -45 0 -45 0 0 -50z"/>
<path d="M1250 2595 l0 -45 95 0 95 0 0 -50 0 -50 50 0 50 0 0 -50 0 -50 95 0
95 0 0 50 0 50 -95 0 -95 0 0 95 0 95 -145 0 -145 0 0 -45z"/>
<path d="M3460 2545 l0 -95 -100 0 -100 0 0 -50 0 -51 98 3 97 3 3 48 3 47 44
0 44 0 3 48 3 47 93 3 92 3 0 44 0 45 -140 0 -140 0 0 -95z"/>
<path d="M2400 2310 l0 -50 95 0 95 0 0 44 0 43 -67 6 c-128 12 -123 14 -123
-43z"/>
<path d="M2690 2310 l0 -50 95 0 95 0 0 44 0 43 -67 6 c-128 12 -123 14 -123
-43z"/>
<path d="M2020 2015 l0 -145 45 0 45 0 0 -45 0 -45 385 0 385 0 0 45 0 45 50
0 50 0 0 50 0 50 -50 0 -50 0 0 -45 0 -45 -290 0 -290 0 0 96 0 96 -90 -7 -90
-7 0 51 0 51 -50 0 -50 0 0 -145z m190 -90 l0 -45 -45 0 -45 0 0 45 0 45 45 0
45 0 0 -45z"/>
<path d="M2310 2115 l0 -45 45 0 45 0 0 45 0 45 -45 0 -45 0 0 -45z"/>
<path d="M2590 2115 l0 -45 50 0 50 0 0 45 0 45 -50 0 -50 0 0 -45z"/>
<path d="M1830 1781 l0 -101 -50 0 -50 0 0 -44 0 -44 -95 -7 -95 -7 0 -44 0
-44 45 0 45 0 0 -45 0 -45 50 0 49 0 3 93 3 92 48 3 47 3 0 44 0 44 48 3 47 3
0 95 0 95 -47 3 -48 3 0 -100z"/>
<path d="M3070 1780 l0 -100 50 0 50 0 0 -45 0 -45 45 0 45 0 0 -95 0 -95 50
0 50 0 0 45 0 45 50 0 50 0 0 44 0 44 -100 7 -100 7 0 44 0 44 -45 0 -45 0 0
100 0 100 -50 0 -50 0 0 -100z"/>
</g>
</svg>
