<?xml version="1.0" standalone="no"?>
<!DOCTYPE svg PUBLIC "-//W3C//DTD SVG 20010904//EN"
 "http://www.w3.org/TR/2001/REC-SVG-20010904/DTD/svg10.dtd">
<svg version="1.0" xmlns="http://www.w3.org/2000/svg"
 width="500.000000pt" height="500.000000pt" viewBox="0 0 500.000000 500.000000"
 preserveAspectRatio="xMidYMid meet">

<g transform="translate(0.000000,500.000000) scale(0.100000,-0.100000)"
fill="#000000" stroke="none">
<path d="M1500 3340 l0 -160 40 0 40 0 0 -40 0 -40 40 0 40 0 0 -40 0 -40 40
0 40 0 0 -40 0 -40 40 0 40 0 0 -40 0 -40 40 0 40 0 0 -40 0 -40 40 0 40 0 0
-40 0 -40 40 0 40 0 0 -40 0 -40 40 0 40 0 0 -40 0 -40 40 0 40 0 0 -40 0 -40
-40 0 -40 0 0 -40 0 -40 -80 0 -80 0 0 40 0 40 -40 0 -40 0 0 40 0 40 -80 0
-80 0 0 -40 0 -40 -40 0 -40 0 0 -40 0 -40 40 0 40 0 0 -40 0 -40 40 0 40 0 0
-40 0 -40 40 0 40 0 0 -80 0 -80 -40 0 -40 0 0 -40 0 -40 -40 0 -40 0 0 -40 0
-40 -40 0 -40 0 0 -40 0 -40 -80 0 -80 0 0 -160 0 -160 160 0 160 0 0 80 0 80
40 0 40 0 0 40 0 40 40 0 40 0 0 40 0 40 40 0 40 0 0 40 0 40 80 0 80 0 0 -40
0 -40 40 0 40 0 0 -40 0 -40 40 0 40 0 0 -40 0 -40 40 0 40 0 0 40 0 40 40 0
40 0 0 -40 0 -40 40 0 40 0 0 40 0 40 40 0 40 0 0 40 0 40 40 0 40 0 0 40 0
40 80 0 80 0 0 -40 0 -40 40 0 40 0 0 -40 0 -40 40 0 40 0 0 -40 0 -40 40 0
40 0 0 -80 0 -80 160 0 160 0 0 160 0 160 -80 0 -80 0 0 40 0 40 -40 0 -40 0
0 40 0 40 -40 0 -40 0 0 40 0 40 -40 0 -40 0 0 80 0 80 40 0 40 0 0 40 0 40
40 0 40 0 0 40 0 40 40 0 40 0 0 40 0 40 -40 0 -40 0 0 40 0 40 -80 0 -80 0 0
-40 0 -40 -40 0 -40 0 0 -40 0 -40 -80 0 -80 0 0 40 0 40 -40 0 -40 0 0 40 0
40 40 0 40 0 0 40 0 40 40 0 40 0 0 40 0 40 40 0 40 0 0 40 0 40 40 0 40 0 0
40 0 40 40 0 40 0 0 40 0 40 40 0 40 0 0 40 0 40 40 0 40 0 0 40 0 40 40 0 40
0 0 40 0 40 40 0 40 0 0 160 0 160 -160 0 -160 0 0 -40 0 -40 -40 0 -40 0 0
-40 0 -40 -40 0 -40 0 0 -40 0 -40 -40 0 -40 0 0 -40 0 -40 -40 0 -40 0 0 -40
0 -40 -40 0 -40 0 0 -40 0 -40 -40 0 -40 0 0 -40 0 -40 -40 0 -40 0 0 -40 0
-40 -40 0 -40 0 0 -40 0 -40 -40 0 -40 0 0 40 0 40 -40 0 -40 0 0 40 0 40 -40
0 -40 0 0 40 0 40 -40 0 -40 0 0 40 0 40 -40 0 -40 0 0 40 0 40 -40 0 -40 0 0
40 0 40 -40 0 -40 0 0 40 0 40 -40 0 -40 0 0 40 0 40 -40 0 -40 0 0 40 0 40
-160 0 -160 0 0 -160z m320 40 l0 -40 40 0 40 0 0 -40 0 -40 40 0 40 0 0 -40
0 -40 40 0 40 0 0 -40 0 -40 40 0 40 0 0 -40 0 -40 40 0 40 0 0 -40 0 -40 40
0 40 0 0 -40 0 -40 40 0 40 0 0 -40 0 -40 40 0 40 0 0 -40 0 -40 40 0 40 0 0
40 0 40 40 0 40 0 0 40 0 40 40 0 40 0 0 40 0 40 40 0 40 0 0 40 0 40 40 0 40
0 0 40 0 40 40 0 40 0 0 40 0 40 40 0 40 0 0 40 0 40 40 0 40 0 0 40 0 40 40
0 40 0 0 40 0 41 118 -3 117 -3 3 -117 3 -118 -41 0 -40 0 0 -40 0 -40 -40 0
-40 0 0 -40 0 -40 -40 0 -40 0 0 -40 0 -40 -40 0 -40 0 0 -40 0 -40 -40 0 -40
0 0 -40 0 -40 -40 0 -40 0 0 -40 0 -40 -40 0 -40 0 0 -40 c0 -40 0 -40 -39
-40 -39 0 -40 -1 -43 -37 -3 -36 -5 -38 -40 -41 -37 -3 -38 -4 -38 -43 0 -39
0 -39 40 -39 l40 0 0 -40 0 -40 40 0 41 0 -3 -77 -3 -78 -37 -3 c-35 -3 -37
-5 -40 -40 l-3 -37 -77 -3 -78 -3 0 -79 0 -80 40 0 40 0 0 40 0 40 40 0 40 0
0 40 0 40 40 0 40 0 0 40 0 40 40 0 40 0 0 40 0 40 40 0 40 0 0 40 0 40 40 0
40 0 0 40 0 41 78 -3 77 -3 0 -35 c0 -33 -2 -35 -37 -38 -35 -3 -37 -5 -40
-40 -3 -35 -5 -37 -40 -40 -35 -3 -37 -5 -40 -40 -3 -35 -5 -37 -40 -40 -35
-3 -37 -5 -40 -40 -3 -35 -5 -37 -40 -40 -35 -3 -37 -5 -40 -40 -3 -35 -5 -37
-40 -40 -35 -3 -37 -5 -40 -40 -3 -35 -5 -37 -40 -40 -35 -3 -37 -5 -40 -40
-3 -35 -5 -37 -40 -40 -35 -3 -37 -5 -40 -40 -3 -35 -5 -37 -40 -40 -35 -3
-37 -5 -40 -40 -3 -35 -5 -37 -38 -37 l-35 0 -3 78 -3 77 41 0 40 0 0 40 0 40
-40 0 c-39 0 -40 -1 -40 -35 0 -34 -1 -35 -40 -35 -39 0 -40 1 -40 35 0 34 -1
35 -40 35 l-40 0 0 -40 0 -40 40 0 41 0 -3 -77 -3 -78 -35 0 c-33 0 -35 2 -38
37 -3 35 -5 37 -40 40 -35 3 -37 5 -40 40 -3 35 -5 37 -40 40 -35 3 -37 5 -40
40 -3 35 -5 37 -40 40 -35 3 -37 5 -40 40 -3 35 -5 37 -40 40 -35 3 -37 5 -40
40 -3 35 -5 37 -40 40 -35 3 -37 5 -40 40 -3 35 -5 37 -40 40 -35 3 -37 5 -40
40 -3 35 -5 37 -40 40 -35 3 -37 5 -40 40 -3 35 -5 37 -40 40 -35 3 -37 5 -37
38 l0 35 78 3 77 3 0 -41 0 -40 40 0 40 0 0 -40 0 -40 40 0 40 0 0 -40 0 -40
40 0 40 0 0 -40 0 -40 40 0 40 0 0 -40 0 -40 40 0 40 0 0 -40 0 -40 40 0 40 0
0 80 0 79 -77 3 -78 3 -3 37 c-3 35 -5 37 -40 40 l-37 3 -3 78 -3 77 41 0 40
0 0 40 0 40 40 0 40 0 0 40 0 40 -40 0 -40 0 0 40 0 40 -40 0 -40 0 0 40 0 40
-40 0 -40 0 0 40 0 40 -40 0 -40 0 0 40 0 40 -40 0 -40 0 0 40 0 40 -40 0 -40
0 0 40 0 40 -40 0 -40 0 0 40 0 40 -40 0 -40 0 0 40 0 40 -40 0 -40 0 0 113
c0 63 3 117 7 120 3 4 57 7 120 7 l113 0 0 -40z m-160 -1680 l0 -40 40 0 40 0
0 -40 0 -41 -77 3 -78 3 -3 78 -3 77 41 0 40 0 0 -40z m1758 -37 l-3 -78 -77
-3 -78 -3 0 41 0 40 40 0 40 0 0 40 0 40 40 0 41 0 -3 -77z"/>
<path d="M2540 2660 l0 -40 40 0 40 0 0 -40 0 -40 40 0 40 0 0 40 0 40 -40 0
-40 0 0 40 0 40 -40 0 -40 0 0 -40z"/>
<path d="M2300 2420 l0 -40 40 0 40 0 0 -40 0 -40 41 0 40 0 -3 -37 c-3 -36
-5 -38 -40 -41 -37 -3 -38 -4 -38 -43 0 -39 0 -39 40 -39 l40 0 0 40 0 40 40
0 40 0 0 -40 0 -40 40 0 40 0 0 40 0 40 -40 0 -40 0 0 40 0 40 -40 0 -40 0 0
40 0 40 -40 0 -40 0 0 40 0 40 -40 0 -40 0 0 -40z"/>
</g>
</svg>
